<?xml version="1.0" encoding="iso-8859-1"?>
<!-- Uploaded to: SVG Repo, www.svgrepo.com, Generator: SVG Repo Mixer Tools -->
<svg version="1.1" id="Layer_1" xmlns="http://www.w3.org/2000/svg" xmlns:xlink="http://www.w3.org/1999/xlink" 
	 viewBox="0 0 400.727 400.727" xml:space="preserve">
<g>
	<path style="fill:#F7CF52;" d="M282.456,242.261c-3.944-12.576-0.605-26.178,8.714-35.498l91.23-91.23
		c2.146-2.145,3.327-4.997,3.327-8.03s-1.182-5.885-3.326-8.03l-6.818-6.818l10.605-10.607l6.818,6.818
		c4.979,4.978,7.721,11.597,7.721,18.637c0,7.041-2.742,13.659-7.721,18.637l-91.229,91.23c-5.356,5.356-7.275,13.174-5.009,20.402
		L282.456,242.261z"/>
	<g>
		<g id="XMLID_16_">
			<g>
				<path style="fill:#F7CF52;" d="M324.677,20.531l12.806-12.806c6.986-6.986,18.307-6.979,25.293,0.007l27.733,27.733
					c6.986,6.986,6.993,18.307,0.007,25.293L377.71,73.564L324.677,20.531z"/>
				
					<rect x="61.099" y="191.728" transform="matrix(-0.7071 0.7071 -0.7071 -0.7071 438.5992 300.7704)" style="fill:#008DB3;" width="191.818" height="98.989"/>
				
					<rect x="221.246" y="115.266" transform="matrix(-0.7071 0.7071 -0.7071 -0.7071 515.0627 116.1743)" style="fill:#F7CF52;" width="24.45" height="98.989"/>
				<polygon style="fill:#008DB3;" points="386.188,82.042 277.117,191.113 207.12,121.116 316.192,12.045 324.677,20.531 
					377.71,73.564 				"/>
				<path style="fill:#F7CF52;" d="M54.194,274.042l69.997,69.997C95.072,373.158,54.633,388,13.6,384.641
					C10.234,343.601,25.076,303.161,54.194,274.042z"/>
			</g>
		</g>
	</g>
	<path style="fill:#008DB3;" d="M7.5,398.237c-1.919,0-3.839-0.732-5.303-2.197c-2.929-2.929-2.929-7.677,0-10.606l12.405-12.406
		l10.606,10.606L12.803,396.04C11.339,397.504,9.42,398.237,7.5,398.237z"/>
</g>
</svg>